<?xml version="1.0" encoding="iso-8859-1"?>
<!-- Uploaded to: SVG Repo, www.svgrepo.com, Generator: SVG Repo Mixer Tools -->
<svg version="1.1" id="Layer_1" xmlns="http://www.w3.org/2000/svg" xmlns:xlink="http://www.w3.org/1999/xlink" 
	 viewBox="0 0 512 512" xml:space="preserve">
<circle style="fill:#273B7A;" cx="256" cy="256" r="256"/>
<path style="fill:#121149;" d="M509.154,294.24L332.262,118.546l-6.587-1.751l-28.444-16.808l-75.461-1.581l-35.297,23.13
	l-3.739,2.729l-5.67,3.591l-16.455,62.85l27.743,11.348l-31.048,29.955l23.847,86.34l-33.535,90.327l103.258,103.258
	c1.705,0.033,3.41,0.066,5.122,0.066C384.388,512,490.694,417.485,509.154,294.24z"/>
<path style="fill:#A6A8AA;" d="M363.744,194.586h-13.791c0-51.807-42.146-93.953-93.953-93.953s-93.953,42.146-93.953,93.953
	h-13.791c0-59.411,48.333-107.744,107.744-107.744S363.744,135.175,363.744,194.586z"/>
<path style="fill:#808183;" d="M256,86.842v13.791c51.807,0,93.953,42.146,93.953,93.953h13.791
	C363.744,135.175,315.411,86.842,256,86.842z"/>
<path style="fill:#A6A8AA;" d="M344.638,418.263H167.364c-13.884,0-25.141-11.255-25.141-25.14V190.707h227.556v202.416
	C369.778,407.007,358.522,418.263,344.638,418.263z"/>
<path style="fill:#808183;" d="M256,190.707v227.556h88.636c13.884,0,25.14-11.255,25.14-25.14V190.707H256z"/>
<rect x="170.667" y="247.587" style="fill:#FFFFFF;" width="170.667" height="113.778"/>
<rect x="256" y="247.587" style="fill:#D0E6F7;" width="85.333" height="113.778"/>
<path style="fill:#FFFFFF;" d="M369.778,219.152H142.222c-7.854,0-14.222-6.368-14.222-14.222l0,0
	c0-7.854,6.368-14.222,14.222-14.222h227.556c7.854,0,14.222,6.368,14.222,14.222l0,0C384,212.783,377.632,219.152,369.778,219.152z
	"/>
<path style="fill:#D0E6F7;" d="M369.778,190.707H256v28.444h113.778c7.854,0,14.222-6.368,14.222-14.222
	S377.632,190.707,369.778,190.707z"/>
<path style="fill:#71E2EF;" d="M208.305,190.707v87.919c0,7.854,6.368,14.222,14.222,14.222l0,0c7.854,0,14.222-6.368,14.222-14.222
	l0,0c0-7.854,6.368-14.222,14.222-14.222l0,0c7.854,0,14.222,6.368,14.222,14.222v28.444c0,7.854,6.368,14.222,14.222,14.222l0,0
	c7.854,0,14.222-6.368,14.222-14.222V190.707H208.305z"/>
<path style="fill:#38C6D9;" d="M256,190.707v74.63c5.37,2.032,9.194,7.209,9.194,13.29v28.444c0,7.854,6.368,14.222,14.222,14.222
	c7.854,0,14.222-6.368,14.222-14.222V190.707H256z"/>
</svg>