<?xml version="1.0" encoding="iso-8859-1"?>
<!-- Uploaded to: SVG Repo, www.svgrepo.com, Generator: SVG Repo Mixer Tools -->
<svg version="1.1" id="Layer_1" xmlns="http://www.w3.org/2000/svg" xmlns:xlink="http://www.w3.org/1999/xlink" 
	 viewBox="0 0 512 512" xml:space="preserve">
<circle style="fill:#273B7A;" cx="256" cy="256" r="256"/>
<path style="fill:#121149;" d="M263.242,511.893c129.171-3.589,234.422-102.855,247.406-229.464l-133.67-133.67l-12.24,21.978
	l-0.133-4.38H168.839l-17.599-17.598l-2.486,17.598h-6.532v114.352h161.27l-14.522,26.074l13.4,13.4l-186.156,44.682
	L263.242,511.893z"/>
<rect x="142.222" y="160.323" style="fill:#FEE187;" width="227.556" height="12.067"/>
<rect x="255.431" y="160.323" style="fill:#FFC61B;" width="114.347" height="12.067"/>
<path style="fill:#E09112;" d="M153.993,227.556v-73.057c0-4.072-3.301-7.371-7.371-7.371h-6.98c-3.382,0-6.332,2.301-7.152,5.584
	l-18.711,74.845v130.012c0,6.744,5.466,12.21,12.21,12.21h129.438V227.556H153.993z"/>
<path style="fill:#FF5419;" d="M379.511,152.71c-0.821-3.282-3.768-5.584-7.152-5.584h-6.978c-4.072,0-7.371,3.301-7.371,7.371
	v73.057H255.428v142.222h130.586c6.744,0,12.21-5.467,12.21-12.21V227.556L379.511,152.71z"/>
<path style="fill:#D35933;" d="M386.012,369.778H125.988c-6.744,0-12.21-5.467-12.21-12.21V227.556h284.444v130.012
	C398.222,364.311,392.756,369.778,386.012,369.778z"/>
<path style="fill:#B54324;" d="M255.426,227.556v142.222h130.586c6.744,0,12.21-5.467,12.21-12.21V227.556H255.426z"/>
<rect x="142.222" y="227.556" style="fill:#FFC61B;" width="227.556" height="28.444"/>
<rect x="255.431" y="227.556" style="fill:#EAA22F;" width="114.347" height="28.444"/>
<g>
	<path style="fill:#930000;" d="M173.037,273.67h-9.481c-2.619,0-4.741-2.122-4.741-4.741v-18.963c0-2.619,2.122-4.741,4.741-4.741
		h9.481c2.619,0,4.741,2.122,4.741,4.741v18.963C177.778,271.548,175.656,273.67,173.037,273.67z"/>
	<path style="fill:#930000;" d="M348.444,273.67h-9.481c-2.619,0-4.741-2.122-4.741-4.741v-18.963c0-2.619,2.122-4.741,4.741-4.741
		h9.481c2.619,0,4.741,2.122,4.741,4.741v18.963C353.185,271.548,351.063,273.67,348.444,273.67z"/>
</g>
</svg>