<?xml version="1.0" encoding="iso-8859-1"?>
<!-- Uploaded to: SVG Repo, www.svgrepo.com, Generator: SVG Repo Mixer Tools -->
<svg height="800px" width="800px" version="1.1" id="Layer_1" xmlns="http://www.w3.org/2000/svg" xmlns:xlink="http://www.w3.org/1999/xlink" 
	 viewBox="0 0 512 512" xml:space="preserve">
<circle style="fill:#273B7A;" cx="256" cy="256" r="256"/>
<path style="fill:#121149;" d="M512,256c0-0.247-0.009-0.491-0.009-0.736L363.124,106.396l-44.632,28.931v66.801l5.815,5.815
	L191.941,329.278l-11.217-11.217h-43.098l-30.648,45.63l148.301,148.301c0.241,0,0.479,0.009,0.721,0.009
	C397.384,512,512,397.384,512,256z"/>
<path style="fill:#FFFFFF;" d="M199.721,336.387l136.633-136.623c18.348,8.514,40.829,5.206,55.963-9.928
	c10.538-10.538,15.339-24.636,14.412-38.422c-0.245-3.637-4.711-5.258-7.289-2.681l-26.669,26.671l-30.142-6.029l-6.028-30.142
	l26.671-26.671c2.617-2.617,0.895-7.058-2.798-7.297c-14.203-0.922-28.727,4.237-39.334,15.482
	c-14.174,15.024-17.065,36.978-8.857,54.862L175.649,312.232c-18.348-8.514-40.829-5.206-55.963,9.928
	c-10.538,10.538-15.339,24.636-14.412,38.422c0.245,3.637,4.711,5.258,7.289,2.681l26.671-26.671l30.142,6.028l6.029,30.143
	l-26.671,26.671c-2.617,2.617-0.896,7.058,2.798,7.297c14.203,0.922,28.727-4.237,39.334-15.482
	C205.036,376.225,207.927,354.271,199.721,336.387z"/>
<path style="fill:#D0D1D3;" d="M406.73,151.414c-0.245-3.637-4.711-5.258-7.289-2.679l-26.669,26.671l-30.142-6.029l-0.097-0.483
	L168.898,342.528l0.474,0.095l6.029,30.143l-26.671,26.671c-2.617,2.617-0.896,7.058,2.798,7.297
	c14.203,0.922,28.727-4.237,39.334-15.482c14.172-15.024,17.065-36.978,8.857-54.862l136.633-136.623
	c18.348,8.514,40.829,5.206,55.963-9.928C402.854,179.298,407.657,165.2,406.73,151.414z"/>
</svg>