<?xml version="1.0" encoding="utf-8"?>
<!-- Generator: Adobe Illustrator 26.0.0, SVG Export Plug-In . SVG Version: 6.00 Build 0)  -->
<svg version="1.1" id="Layer_1" xmlns="http://www.w3.org/2000/svg" xmlns:xlink="http://www.w3.org/1999/xlink" x="0px" y="0px"
	 viewBox="0 0 16 16" style="enable-background:new 0 0 16 16;" xml:space="preserve">
<style type="text/css">
	.st0{fill:#C1FFBF;}
</style>
<path class="st0" d="M12.2,9.5c2.3-2.6,3.3-4.7,3.6-6.2C16,2.4,16,1.7,16,1.2c0-0.2-0.1-0.4-0.1-0.6c0-0.1,0-0.2-0.1-0.2v0
	c-0.1-0.2-0.2-0.2-0.4-0.3c-0.1,0-0.1,0-0.2,0c-0.2,0-0.4-0.1-0.6-0.1c-0.5,0-1.2,0-2.1,0.2C11.1,0.6,9,1.6,6.5,3.8L4.1,4.1h0
	C3.5,4.1,2.9,4.4,2.5,4.8L0.2,7.2C0,7.4,0,7.7,0.2,7.9C0.3,8,0.4,8.1,0.6,8l1.9-0.3c0.3,0,0.6,0,1,0.1C3.7,8,3.9,8.1,4.1,8.1
	l0.2,0.1C4.5,9,5,9.8,5.6,10.4c0.6,0.6,1.4,1.1,2.2,1.3l0.1,0.2c0.1,0.2,0.2,0.4,0.2,0.7c0.1,0.4,0.2,0.7,0.1,1l-0.3,1.9
	c0,0.3,0.2,0.5,0.4,0.6c0.2,0,0.3,0,0.4-0.1l2.4-2.4c0.4-0.4,0.7-0.9,0.7-1.5L12.2,9.5L12.2,9.5z M12.3,5.8c-0.8,0.8-1.9,1-2.5,0.4
	c-0.6-0.6-0.4-1.7,0.4-2.5c0.8-0.8,1.9-1,2.5-0.4C13.2,3.9,13.1,5,12.3,5.8L12.3,5.8z"/>
<path class="st0" d="M5.2,10.8c0.5,0.5,1.1,1,1.8,1.4c-1.1,1-4.9,2-5.1,1.9c-0.1-0.1,0.7-4.2,1.8-5.2C4.1,9.6,4.6,10.2,5.2,10.8z"/>
</svg>
