<?xml version="1.0" encoding="utf-8"?>
<!-- Generator: Adobe Illustrator 26.0.0, SVG Export Plug-In . SVG Version: 6.00 Build 0)  -->
<svg version="1.1" id="Capa_1" xmlns="http://www.w3.org/2000/svg" xmlns:xlink="http://www.w3.org/1999/xlink" x="0px" y="0px"
	 viewBox="0 0 800 800" style="enable-background:new 0 0 800 800;" xml:space="preserve">
<style type="text/css">
	.st0{fill:#FFFFFF;}
</style>
<g>
	<path class="st0" d="M679.5,509.8v182.7h-559V509.8H13v236.5c0,29.6,24,53.7,53.8,53.7h666.3c29.8,0,53.8-24,53.8-53.7V509.8H679.5
		z"/>
	<path class="st0" d="M390.2,491.7L236.3,305.9c0,0-23.4-22.1,2-22.1s86.7,0,86.7,0s0-14.9,0-37.8c0-65.4,0-184.3,0-232.8
		c0,0-3.4-13.2,16.4-13.2c20,0,107.7,0,122,0c14.3,0,14,11.1,14,11.1c0,47,0,170.1,0,233.3c0,20.5,0,33.8,0,33.8s49.2,0,80,0
		c30.8,0,7.6,23.1,7.6,23.1S434.1,475,415.9,493.3C402.7,506.5,390.2,491.7,390.2,491.7z"/>
</g>
</svg>
