<?xml version="1.0" encoding="utf-8"?>
<!-- Generator: Adobe Illustrator 26.0.0, SVG Export Plug-In . SVG Version: 6.00 Build 0)  -->
<svg version="1.1" id="Layer_1" xmlns="http://www.w3.org/2000/svg" xmlns:xlink="http://www.w3.org/1999/xlink" x="0px" y="0px"
	 viewBox="0 0 16 16" style="enable-background:new 0 0 16 16;" xml:space="preserve">
<style type="text/css">
	.st0{fill:#FFFFFF;}
</style>
<path class="st0" d="M8.5,6.5C8.5,6.2,8.3,6,8,6S7.5,6.2,7.5,6.5v3.8L6.4,9.1C6.2,9,5.8,9,5.6,9.1s-0.2,0.5,0,0.7l2,2
	c0.2,0.2,0.5,0.2,0.7,0l0,0l2-2c0.2-0.2,0.2-0.5,0-0.7S9.8,9,9.6,9.1l-1.1,1.1V6.5z"/>
<path class="st0" d="M14,14V4.5L9.5,0H4C2.9,0,2,0.9,2,2v12c0,1.1,0.9,2,2,2h8C13.1,16,14,15.1,14,14z M9.5,3c0,0.8,0.7,1.5,1.5,1.5
	h2V14c0,0.6-0.4,1-1,1H4c-0.6,0-1-0.4-1-1V2c0-0.6,0.4-1,1-1h5.5V3z"/>
</svg>
