<svg xmlns="http://www.w3.org/2000/svg" xmlns:xlink="http://www.w3.org/1999/xlink" version="1.1" width="256" height="256" viewBox="0 0 256 256" xml:space="preserve">

<defs>
</defs>
<g style="stroke: none; stroke-width: 0; stroke-dasharray: none; stroke-linecap: butt; stroke-linejoin: miter; stroke-miterlimit: 10; fill: none; fill-rule: nonzero; opacity: 1;" transform="translate(1.4065934065934016 1.4065934065934016) scale(2.81 2.81)" >
	<path d="M 56.936 42.711 c 0.381 -0.819 0.579 -1.723 0.579 -2.655 c 0 -2.418 -1.389 -4.605 -3.43 -5.492 c -0.772 -1.732 -2.296 -2.948 -4.032 -3.26 c -0.589 -1.017 -1.64 -1.67 -2.78 -1.67 c -0.884 0 -1.684 0.381 -2.273 0.994 c -0.59 -0.612 -1.39 -0.994 -2.273 -0.994 c -1.141 0 -2.19 0.653 -2.78 1.67 c -1.736 0.313 -3.26 1.528 -4.031 3.26 c -2.042 0.886 -3.431 3.074 -3.431 5.492 c 0 0.932 0.199 1.835 0.58 2.655 c -0.989 1.097 -1.543 2.559 -1.543 4.126 c 0 1.457 0.499 2.86 1.385 3.938 c -0.12 0.493 -0.181 1 -0.181 1.514 c 0 3.26 2.444 5.912 5.449 5.912 c 0.187 0 0.375 -0.016 0.562 -0.037 c 0.655 1.304 1.921 2.203 3.392 2.203 c 1.144 0 2.162 -0.547 2.871 -1.399 c 0.709 0.852 1.728 1.399 2.871 1.399 c 1.471 0 2.737 -0.899 3.392 -2.203 c 0.187 0.021 0.375 0.037 0.562 0.037 c 3.005 0 5.449 -2.652 5.449 -5.912 c 0 -0.513 -0.061 -1.02 -0.182 -1.513 c 0.887 -1.078 1.386 -2.481 1.386 -3.938 C 58.479 45.27 57.925 43.808 56.936 42.711 z M 51.825 56.2 c -0.028 0 -0.056 -0.01 -0.084 -0.011 c -0.004 -0.549 -0.448 -0.993 -0.999 -0.993 c -0.553 0 -1 0.447 -1 1 c 0 1.196 -0.84 2.17 -1.871 2.17 S 46 57.393 46 56.196 V 39.699 c 0 -0.023 -0.012 -0.043 -0.013 -0.065 C 45.988 39.61 46 39.591 46 39.568 c 0 -0.779 0.634 -1.412 1.412 -1.412 c 0.553 0 1 -0.448 1 -1 s -0.447 -1 -1 -1 c -1.881 0 -3.412 1.531 -3.412 3.412 c 0 0.023 0.012 0.043 0.013 0.065 C 44.012 39.656 44 39.676 44 39.699 v 2.623 c -0.432 -0.198 -0.907 -0.315 -1.413 -0.315 c -0.552 0 -1 0.448 -1 1 s 0.448 1 1 1 c 0.779 0 1.413 0.633 1.413 1.412 v 10.777 c 0 1.196 -0.839 2.17 -1.871 2.17 s -1.871 -0.974 -1.871 -2.17 c 0 -0.553 -0.448 -1 -1 -1 c -0.55 0 -0.994 0.444 -0.999 0.993 c -0.028 0.001 -0.056 0.011 -0.084 0.011 c -1.902 0 -3.449 -1.755 -3.449 -3.912 c 0 -0.09 0.017 -0.177 0.022 -0.266 c 0.254 0.069 0.5 0.111 0.727 0.111 c 0.391 0 0.739 -0.084 1.025 -0.194 c 0.516 -0.198 0.773 -0.777 0.574 -1.293 c -0.198 -0.517 -0.78 -0.769 -1.292 -0.574 c -0.246 0.093 -0.568 0.125 -1.08 -0.296 c -0.75 -0.744 -1.181 -1.813 -1.181 -2.938 c 0 -1.238 0.527 -2.413 1.408 -3.149 c 0.271 -0.195 0.537 -0.335 0.79 -0.409 c 0.53 -0.155 0.834 -0.711 0.679 -1.241 c -0.156 -0.531 -0.715 -0.835 -1.241 -0.679 c -0.138 0.04 -0.274 0.108 -0.411 0.165 c -0.167 -0.464 -0.263 -0.957 -0.263 -1.467 c 0 -1.006 0.353 -1.94 0.929 -2.647 c 0.085 0.73 0.345 1.434 0.785 2.108 c 0.192 0.293 0.512 0.453 0.838 0.453 c 0.188 0 0.378 -0.053 0.546 -0.163 c 0.462 -0.303 0.592 -0.922 0.29 -1.384 c -0.556 -0.85 -0.638 -1.713 -0.259 -2.718 l 0.01 -0.027 c 0.528 -1.494 1.785 -2.458 3.201 -2.458 c 0.552 0 1 -0.448 1 -1 c 0 -0.035 -0.016 -0.065 -0.02 -0.099 c 0.237 -0.299 0.564 -0.485 0.922 -0.485 c 0.702 0 1.273 0.677 1.273 1.51 c 0 0.552 0.448 1 1 1 s 1 -0.448 1 -1 c 0 -0.833 0.571 -1.51 1.273 -1.51 c 0.358 0 0.686 0.186 0.922 0.485 c -0.004 0.034 -0.02 0.064 -0.02 0.1 c 0 0.552 0.447 1 1 1 c 1.416 0 2.672 0.965 3.201 2.458 l 0.012 0.033 c 0.237 0.632 0.292 1.204 0.166 1.747 c -0.126 0.538 0.209 1.076 0.747 1.201 c 0.076 0.018 0.152 0.026 0.228 0.026 c 0.454 0 0.865 -0.312 0.973 -0.773 c 0.039 -0.169 0.058 -0.341 0.077 -0.512 c 0.58 0.708 0.935 1.646 0.935 2.656 c 0 0.512 -0.096 1.004 -0.263 1.467 c -0.137 -0.057 -0.273 -0.124 -0.41 -0.165 c -0.529 -0.155 -1.086 0.149 -1.241 0.679 c -0.155 0.53 0.149 1.085 0.679 1.241 c 0.255 0.074 0.52 0.214 0.791 0.41 c 0.881 0.737 1.408 1.911 1.408 3.149 c 0 1.126 -0.432 2.194 -1.181 2.938 c -0.513 0.422 -0.835 0.391 -1.08 0.296 c -0.518 -0.195 -1.094 0.06 -1.293 0.574 c -0.198 0.516 0.06 1.095 0.574 1.293 c 0.287 0.11 0.635 0.194 1.026 0.194 c 0.227 0 0.473 -0.042 0.727 -0.111 c 0.005 0.089 0.022 0.177 0.022 0.266 C 55.274 54.445 53.728 56.2 51.825 56.2 z" style="stroke: none; stroke-width: 1; stroke-dasharray: none; stroke-linecap: butt; stroke-linejoin: miter; stroke-miterlimit: 10; fill: rgb(0,0,0); fill-rule: nonzero; opacity: 1;" transform=" matrix(1 0 0 1 0 0) " stroke-linecap="round" />
	<path d="M 85.729 40.729 c -2.009 0 -3.687 1.399 -4.14 3.271 H 65.586 v -4.868 H 76.84 c 0.553 0 1 -0.448 1 -1 s -0.447 -1 -1 -1 H 65.586 v -4.867 h 7.508 c 0.553 0 1 -0.448 1 -1 s -0.447 -1 -1 -1 h -7.508 v -1.041 c 0 -2.652 -2.158 -4.811 -4.811 -4.811 h -1.04 v -7.508 c 0 -0.552 -0.447 -1 -1 -1 s -1 0.448 -1 1 v 7.508 h -4.868 V 13.16 c 0 -0.552 -0.447 -1 -1 -1 s -1 0.448 -1 1 v 11.253 H 46 V 8.41 c 1.871 -0.453 3.271 -2.131 3.271 -4.14 C 49.271 1.916 47.354 0 45 0 c -2.355 0 -4.271 1.916 -4.271 4.271 c 0 2.009 1.399 3.687 3.271 4.14 v 16.003 h -4.868 V 13.16 c 0 -0.552 -0.448 -1 -1 -1 s -1 0.448 -1 1 v 11.253 h -4.867 v -7.508 c 0 -0.552 -0.448 -1 -1 -1 s -1 0.448 -1 1 v 7.508 h -1.041 c -2.652 0 -4.811 2.158 -4.811 4.811 v 1.041 h -7.508 c -0.552 0 -1 0.448 -1 1 s 0.448 1 1 1 h 7.508 v 4.867 H 13.16 c -0.552 0 -1 0.448 -1 1 s 0.448 1 1 1 h 11.253 V 44 H 8.41 c -0.453 -1.872 -2.131 -3.271 -4.14 -3.271 C 1.916 40.729 0 42.645 0 45 c 0 2.354 1.916 4.271 4.271 4.271 c 2.009 0 3.687 -1.399 4.14 -3.271 h 16.003 v 4.867 H 13.16 c -0.552 0 -1 0.447 -1 1 s 0.448 1 1 1 h 11.253 v 4.868 h -7.508 c -0.552 0 -1 0.447 -1 1 s 0.448 1 1 1 h 7.508 v 1.04 c 0 2.652 2.158 4.811 4.811 4.811 h 1.041 v 7.508 c 0 0.553 0.448 1 1 1 s 1 -0.447 1 -1 v -7.508 h 4.867 V 76.84 c 0 0.553 0.448 1 1 1 s 1 -0.447 1 -1 V 65.586 H 44 V 81.59 c -1.872 0.453 -3.271 2.131 -3.271 4.14 C 40.729 88.084 42.645 90 45 90 c 2.354 0 4.271 -1.916 4.271 -4.271 c 0 -2.009 -1.399 -3.687 -3.271 -4.14 V 65.586 h 4.867 V 76.84 c 0 0.553 0.447 1 1 1 s 1 -0.447 1 -1 V 65.586 h 4.868 v 7.508 c 0 0.553 0.447 1 1 1 s 1 -0.447 1 -1 v -7.508 h 1.04 c 2.652 0 4.811 -2.158 4.811 -4.811 v -1.04 h 7.508 c 0.553 0 1 -0.447 1 -1 s -0.447 -1 -1 -1 h -7.508 v -4.868 H 76.84 c 0.553 0 1 -0.447 1 -1 s -0.447 -1 -1 -1 H 65.586 V 46 H 81.59 c 0.453 1.871 2.131 3.271 4.14 3.271 C 88.084 49.271 90 47.354 90 45 C 90 42.645 88.084 40.729 85.729 40.729 z M 42.729 4.271 C 42.729 3.019 43.748 2 45 2 s 2.271 1.019 2.271 2.271 S 46.252 6.541 45 6.541 S 42.729 5.522 42.729 4.271 z M 4.271 47.271 C 3.019 47.271 2 46.252 2 45 s 1.019 -2.271 2.271 -2.271 S 6.541 43.748 6.541 45 S 5.522 47.271 4.271 47.271 z M 47.271 85.729 C 47.271 86.981 46.252 88 45 88 s -2.271 -1.019 -2.271 -2.271 s 1.019 -2.271 2.271 -2.271 S 47.271 84.478 47.271 85.729 z M 63.586 60.775 c 0 1.55 -1.261 2.811 -2.811 2.811 H 29.224 c -1.55 0 -2.811 -1.261 -2.811 -2.811 V 29.224 c 0 -1.55 1.261 -2.811 2.811 -2.811 h 31.551 c 1.55 0 2.811 1.261 2.811 2.811 V 60.775 z M 85.729 47.271 c -1.252 0 -2.271 -1.019 -2.271 -2.271 s 1.019 -2.271 2.271 -2.271 S 88 43.748 88 45 S 86.981 47.271 85.729 47.271 z" style="stroke: none; stroke-width: 1; stroke-dasharray: none; stroke-linecap: butt; stroke-linejoin: miter; stroke-miterlimit: 10; fill: rgb(0,0,0); fill-rule: nonzero; opacity: 1;" transform=" matrix(1 0 0 1 0 0) " stroke-linecap="round" />
</g>
</svg>