<svg xmlns="http://www.w3.org/2000/svg" xmlns:xlink="http://www.w3.org/1999/xlink" version="1.1" width="256" height="256" viewBox="0 0 256 256" xml:space="preserve">

<defs>
</defs>
<g style="stroke: none; stroke-width: 0; stroke-dasharray: none; stroke-linecap: butt; stroke-linejoin: miter; stroke-miterlimit: 10; fill: none; fill-rule: nonzero; opacity: 1;" transform="translate(1.4065934065934016 1.4065934065934016) scale(2.81 2.81)" >
	<path d="M 63.568 90.012 c -8.868 0 -19.921 -3.074 -28.549 -8.285 c -0.599 -0.362 -0.966 -1.011 -0.966 -1.711 v -5.46 c 0 -1.104 0.895 -1.999 1.999 -1.999 s 1.999 0.895 1.999 1.999 v 4.317 c 11.327 6.49 25.007 8.355 31.963 6.361 c 1.98 -0.568 3.302 -1.412 3.823 -2.44 c 0.048 -0.094 0.103 -0.184 0.164 -0.269 c 0.846 -1.171 0.763 -3.056 -0.264 -5.934 c -0.53 -1.72 0.318 -2.943 2.494 -3.719 c -0.463 -0.229 -1.178 -0.468 -1.629 -0.618 c -0.69 -0.23 -1.405 -0.469 -2.075 -0.804 c -0.81 -0.406 -1.247 -1.306 -1.062 -2.195 c 0.185 -0.887 0.943 -1.541 1.849 -1.589 c 1.588 -0.086 3.097 -0.498 3.843 -0.848 c -0.052 -0.104 -0.105 -0.213 -0.161 -0.323 c -0.866 -1.741 -1.847 -3.715 -0.953 -5.346 c 0.257 -0.469 0.89 -1.277 2.241 -1.421 c 1.448 -0.195 2.963 -1.116 3.407 -1.643 c -0.345 -0.547 -1.391 -1.705 -2.179 -2.575 c -2.802 -3.098 -6.639 -7.34 -6.736 -12.015 c -0.153 -11.769 -1.839 -19.512 -5.638 -25.907 C 61.773 9.265 51.769 4.256 40.154 4.019 v 14.006 h 6.31 c 1.104 0 1.999 0.895 1.999 1.999 c 0 1.104 -0.895 1.999 -1.999 1.999 h -8.31 c -1.104 0 -1.999 -0.895 -1.999 -1.999 V 2.026 c 0 -1.085 0.865 -1.971 1.949 -1.999 c 13.862 -0.338 25.97 5.428 32.435 15.455 c 4.221 7.102 6.075 15.441 6.238 27.944 c 0.065 3.167 3.324 6.769 5.704 9.399 c 1.772 1.96 2.944 3.255 3.218 4.598 c 0.144 0.639 0.154 1.686 -0.653 2.846 c -1.068 1.533 -3.168 2.661 -5.066 3.177 c 0.195 0.452 0.444 0.954 0.6 1.266 c 0.252 0.508 0.481 0.976 0.626 1.345 c 0.015 0.038 0.028 0.076 0.041 0.115 c 0.298 0.923 0.154 1.877 -0.404 2.69 c -0.368 0.536 -0.905 0.971 -1.522 1.323 c 0.831 0.743 1.414 1.782 1.344 3.288 c -0.109 1.906 -1.719 2.662 -2.739 3.04 c 0.74 2.452 1.203 5.623 -0.593 8.226 c -1.075 2.003 -3.164 3.462 -6.215 4.337 C 68.912 89.71 66.347 90.012 63.568 90.012 z M 78.8 63.691 c -0.012 0.001 -0.023 0.003 -0.036 0.005 C 78.776 63.695 78.788 63.693 78.8 63.691 z" style="stroke: none; stroke-width: 1; stroke-dasharray: none; stroke-linecap: butt; stroke-linejoin: miter; stroke-miterlimit: 10; fill: rgb(0,0,0); fill-rule: nonzero; opacity: 1;" transform=" matrix(1 0 0 1 0 0) " stroke-linecap="round" />
	<path d="M 44.052 33.388 H 22.338 c -1.104 0 -1.999 -0.895 -1.999 -1.999 V 18.351 c 0 -1.104 0.895 -1.999 1.999 -1.999 s 1.999 0.895 1.999 1.999 v 11.038 h 19.715 c 1.104 0 1.999 0.895 1.999 1.999 S 45.156 33.388 44.052 33.388 z" style="stroke: none; stroke-width: 1; stroke-dasharray: none; stroke-linecap: butt; stroke-linejoin: miter; stroke-miterlimit: 10; fill: rgb(0,0,0); fill-rule: nonzero; opacity: 1;" transform=" matrix(1 0 0 1 0 0) " stroke-linecap="round" />
	<path d="M 18.865 64.743 c -1.104 0 -1.999 -0.895 -1.999 -1.999 v -7.601 c 0 -1.104 0.895 -1.999 1.999 -1.999 h 25.937 c 1.104 0 1.999 0.895 1.999 1.999 s -0.895 1.999 -1.999 1.999 H 20.865 v 5.601 C 20.865 63.848 19.97 64.743 18.865 64.743 z" style="stroke: none; stroke-width: 1; stroke-dasharray: none; stroke-linecap: butt; stroke-linejoin: miter; stroke-miterlimit: 10; fill: rgb(0,0,0); fill-rule: nonzero; opacity: 1;" transform=" matrix(1 0 0 1 0 0) " stroke-linecap="round" />
	<path d="M 49.69 45.727 H 15.456 c -1.104 0 -1.999 -0.895 -1.999 -1.999 c 0 -1.104 0.895 -1.999 1.999 -1.999 H 49.69 c 1.104 0 1.999 0.895 1.999 1.999 C 51.69 44.832 50.794 45.727 49.69 45.727 z" style="stroke: none; stroke-width: 1; stroke-dasharray: none; stroke-linecap: butt; stroke-linejoin: miter; stroke-miterlimit: 10; fill: rgb(0,0,0); fill-rule: nonzero; opacity: 1;" transform=" matrix(1 0 0 1 0 0) " stroke-linecap="round" />
	<path d="M 63.686 45.727 h -5.637 c -1.104 0 -1.999 -0.895 -1.999 -1.999 c 0 -1.104 0.895 -1.999 1.999 -1.999 h 5.637 c 1.104 0 1.999 0.895 1.999 1.999 C 65.686 44.832 64.791 45.727 63.686 45.727 z" style="stroke: none; stroke-width: 1; stroke-dasharray: none; stroke-linecap: butt; stroke-linejoin: miter; stroke-miterlimit: 10; fill: rgb(0,0,0); fill-rule: nonzero; opacity: 1;" transform=" matrix(1 0 0 1 0 0) " stroke-linecap="round" />
	<path d="M 22.338 20.351 c -3.646 0 -6.613 -2.966 -6.613 -6.613 s 2.966 -6.613 6.613 -6.613 c 3.646 0 6.613 2.966 6.613 6.613 S 25.985 20.351 22.338 20.351 z M 22.338 11.125 c -1.441 0 -2.614 1.173 -2.614 2.614 s 1.173 2.614 2.614 2.614 c 1.442 0 2.614 -1.173 2.614 -2.614 S 23.78 11.125 22.338 11.125 z" style="stroke: none; stroke-width: 1; stroke-dasharray: none; stroke-linecap: butt; stroke-linejoin: miter; stroke-miterlimit: 10; fill: rgb(0,0,0); fill-rule: nonzero; opacity: 1;" transform=" matrix(1 0 0 1 0 0) " stroke-linecap="round" />
	<path d="M 51.482 26.236 c -3.646 0 -6.613 -2.966 -6.613 -6.613 c 0 -3.646 2.966 -6.613 6.613 -6.613 s 6.613 2.966 6.613 6.613 C 58.095 23.27 55.128 26.236 51.482 26.236 z M 51.482 17.01 c -1.441 0 -2.614 1.173 -2.614 2.614 c 0 1.441 1.173 2.614 2.614 2.614 c 1.442 0 2.615 -1.173 2.615 -2.614 C 54.096 18.182 52.924 17.01 51.482 17.01 z" style="stroke: none; stroke-width: 1; stroke-dasharray: none; stroke-linecap: butt; stroke-linejoin: miter; stroke-miterlimit: 10; fill: rgb(0,0,0); fill-rule: nonzero; opacity: 1;" transform=" matrix(1 0 0 1 0 0) " stroke-linecap="round" />
	<path d="M 10.843 50.34 c -3.646 0 -6.613 -2.966 -6.613 -6.613 s 2.966 -6.613 6.613 -6.613 c 3.646 0 6.613 2.966 6.613 6.613 S 14.489 50.34 10.843 50.34 z M 10.843 41.114 c -1.442 0 -2.614 1.173 -2.614 2.614 c 0 1.441 1.173 2.614 2.614 2.614 c 1.441 0 2.614 -1.173 2.614 -2.614 C 13.456 42.286 12.284 41.114 10.843 41.114 z" style="stroke: none; stroke-width: 1; stroke-dasharray: none; stroke-linecap: butt; stroke-linejoin: miter; stroke-miterlimit: 10; fill: rgb(0,0,0); fill-rule: nonzero; opacity: 1;" transform=" matrix(1 0 0 1 0 0) " stroke-linecap="round" />
	<path d="M 18.865 73.969 c -3.646 0 -6.613 -2.966 -6.613 -6.613 c 0 -3.646 2.967 -6.613 6.613 -6.613 c 3.646 0 6.613 2.966 6.613 6.613 C 25.478 71.003 22.512 73.969 18.865 73.969 z M 18.865 64.743 c -1.441 0 -2.614 1.173 -2.614 2.614 s 1.173 2.614 2.614 2.614 c 1.442 0 2.614 -1.173 2.614 -2.614 S 20.307 64.743 18.865 64.743 z" style="stroke: none; stroke-width: 1; stroke-dasharray: none; stroke-linecap: butt; stroke-linejoin: miter; stroke-miterlimit: 10; fill: rgb(0,0,0); fill-rule: nonzero; opacity: 1;" transform=" matrix(1 0 0 1 0 0) " stroke-linecap="round" />
	<path d="M 36.053 76.555 c -3.646 0 -6.613 -2.966 -6.613 -6.613 c 0 -3.646 2.966 -6.613 6.613 -6.613 c 3.646 0 6.613 2.967 6.613 6.613 C 42.666 73.589 39.699 76.555 36.053 76.555 z M 36.053 67.328 c -1.442 0 -2.614 1.173 -2.614 2.615 c 0 1.441 1.173 2.614 2.614 2.614 c 1.441 0 2.614 -1.173 2.614 -2.614 C 38.667 68.501 37.494 67.328 36.053 67.328 z" style="stroke: none; stroke-width: 1; stroke-dasharray: none; stroke-linecap: butt; stroke-linejoin: miter; stroke-miterlimit: 10; fill: rgb(0,0,0); fill-rule: nonzero; opacity: 1;" transform=" matrix(1 0 0 1 0 0) " stroke-linecap="round" />
</g>
</svg>