<?xml version="1.0" encoding="utf-8"?>
<!-- Generator: Adobe Illustrator 26.0.0, SVG Export Plug-In . SVG Version: 6.00 Build 0)  -->
<svg version="1.1" id="Layer_1" xmlns="http://www.w3.org/2000/svg" xmlns:xlink="http://www.w3.org/1999/xlink" x="0px" y="0px"
	 viewBox="0 0 16 16" style="enable-background:new 0 0 16 16;" xml:space="preserve">
<style type="text/css">
	.st0{fill:#C1FFBF;}
</style>
<path class="st0" d="M11,2c0-0.6,0.4-1,1-1h2c0.6,0,1,0.4,1,1v12h0.5c0.3,0,0.5,0.2,0.5,0.5S15.8,15,15.5,15h-15
	C0.2,15,0,14.8,0,14.5S0.2,14,0.5,14H1v-3c0-0.6,0.4-1,1-1h2c0.6,0,1,0.4,1,1v3h1V7c0-0.6,0.4-1,1-1h2c0.6,0,1,0.4,1,1v7h1V2z"/>
</svg>
