<?xml version="1.0" encoding="utf-8"?>
<!-- Generator: Adobe Illustrator 26.0.0, SVG Export Plug-In . SVG Version: 6.00 Build 0)  -->
<svg version="1.1" id="tailwind-css" xmlns="http://www.w3.org/2000/svg" xmlns:xlink="http://www.w3.org/1999/xlink" x="0px"
	 y="0px" viewBox="0 0 24 24" style="enable-background:new 0 0 24 24;" xml:space="preserve">
<style type="text/css">
	.st0{fill:#67E8F9;}
</style>
<path class="st0" d="M18.5,9.5c-0.7-0.3-1.4-0.7-1.9-1.3C15.5,6.8,13.8,6,12,6c-2.5-0.2-4.6,1.6-5,4c0.7-1.2,2.1-1.8,3.5-1.5
	c0.7,0.3,1.4,0.7,1.9,1.4c1.1,1.4,2.8,2.2,4.6,2.1c2.5,0.2,4.6-1.6,5-4C21.3,9.2,19.9,9.8,18.5,9.5z M5.5,14.5
	c0.7,0.3,1.4,0.7,1.9,1.3C8.5,17.2,10.2,18,12,18c2.5,0.2,4.6-1.6,5-4c-0.7,1.2-2.1,1.8-3.5,1.5c-0.7-0.3-1.4-0.7-1.9-1.4
	C10.5,12.8,8.8,12,7,12c-2.5-0.2-4.6,1.6-5,4C2.7,14.8,4.1,14.2,5.5,14.5z"/>
</svg>
