<?xml version="1.0" encoding="utf-8"?>
<!-- Generator: Adobe Illustrator 26.0.0, SVG Export Plug-In . SVG Version: 6.00 Build 0)  -->
<svg version="1.1" id="Layer_1" xmlns="http://www.w3.org/2000/svg" xmlns:xlink="http://www.w3.org/1999/xlink" x="0px" y="0px"
	 viewBox="0 0 320 512" style="enable-background:new 0 0 320 512;" xml:space="preserve">
<style type="text/css">
	.st0{fill:#FFFFFF;}
</style>
<path class="st0" d="M16,144C16,64.5,80.5,0,160,0s144,64.5,144,144s-64.5,144-144,144S16,223.5,16,144z M160,80c8.8,0,16-7.2,16-16
	s-7.2-16-16-16c-53,0-96,43-96,96c0,8.8,7.2,16,16,16s16-7.2,16-16C96,108.7,124.7,80,160,80z M128,480V317.1
	c10.4,1.9,21.1,2.9,32,2.9s21.6-1,32-2.9V480c0,17.7-14.3,32-32,32S128,497.7,128,480z"/>
</svg>
