<?xml version="1.0" encoding="utf-8"?>
<!-- Generator: Adobe Illustrator 26.0.0, SVG Export Plug-In . SVG Version: 6.00 Build 0)  -->
<svg version="1.1" id="Layer_1" xmlns="http://www.w3.org/2000/svg" xmlns:xlink="http://www.w3.org/1999/xlink" x="0px" y="0px"
	 viewBox="0 0 576 512" style="enable-background:new 0 0 576 512;" xml:space="preserve">
<style type="text/css">
	.st0{fill:#FFFFFF;}
</style>
<path class="st0" d="M264.5,5.2c14.9-6.9,32.1-6.9,47,0l218.6,101c8.5,3.9,13.9,12.4,13.9,21.8s-5.4,17.9-13.9,21.8l-218.6,101
	c-14.9,6.9-32.1,6.9-47,0l-218.6-101c-8.5-4-13.9-12.5-13.9-21.8s5.4-17.9,13.9-21.8L264.5,5.2z M476.9,209.6l53.2,24.6
	c8.5,3.9,13.9,12.4,13.9,21.8s-5.4,17.9-13.9,21.8l-218.6,101c-14.9,6.9-32.1,6.9-47,0l-218.6-101c-8.5-4-13.9-12.5-13.9-21.8
	s5.4-17.9,13.9-21.8l53.2-24.6l152,70.2c23.4,10.8,50.4,10.8,73.8,0L476.9,209.6L476.9,209.6z M324.9,407.8l152-70.2l53.2,24.6
	c8.5,3.9,13.9,12.4,13.9,21.8s-5.4,17.9-13.9,21.8l-218.6,101c-14.9,6.9-32.1,6.9-47,0l-218.6-101c-8.5-4-13.9-12.5-13.9-21.8
	s5.4-17.9,13.9-21.8l53.2-24.6l152,70.2C274.5,418.6,301.5,418.6,324.9,407.8L324.9,407.8z"/>
</svg>
