<?xml version="1.0" encoding="utf-8"?>
<!-- Generator: Adobe Illustrator 26.0.0, SVG Export Plug-In . SVG Version: 6.00 Build 0)  -->
<svg version="1.1" id="Layer_1" xmlns="http://www.w3.org/2000/svg" xmlns:xlink="http://www.w3.org/1999/xlink" x="0px" y="0px"
	 viewBox="0 0 576 512" style="enable-background:new 0 0 576 512;" xml:space="preserve">
<style type="text/css">
	.st0{fill:#FFFFFF;}
</style>
<path class="st0" d="M208,64c0-26.5,21.5-48,48-48s48,21.5,48,48s-21.5,48-48,48S208,90.5,208,64z M9.8,214.8
	c5.1-12.2,19.1-18,31.4-12.9l19.5,8.1l22.9-38.1C99.9,144.6,129.3,128,161,128c51.4,0,97,32.9,113.3,81.7l34.6,103.7l79.3,33.1
	l34.2-45.6c6.4-8.5,16.6-13.3,27.2-12.8s20.3,6.4,25.8,15.5l96,160c5.9,9.9,6.1,22.2,0.4,32.2S555.5,512,544,512H288
	c-11.1,0-21.4-5.7-27.2-15.2s-6.4-21.2-1.4-31.1l16-32c5.4-10.8,16.5-17.7,28.6-17.7h32l22.5-30L22.8,246.2
	C10.6,241.1,4.8,227.1,9.8,214.8L9.8,214.8z M92.6,306.6l112,48c11.8,5,19.4,16.6,19.4,29.4v96c0,17.7-14.3,32-32,32s-32-14.3-32-32
	v-74.9l-60.6-26l-37,111c-5.6,16.8-23.7,25.8-40.5,20.2s-25.8-23.7-20.3-40.4l48-144l11-33C60.6,292.9,92.6,306.6,92.6,306.6z"/>
</svg>
